# xmcd
#
# Track frame offsets:
#   150
#   17333
#   34238
#   60850
#   90749
#
# Disc length: 1601 seconds
#
# Revision: 0
# Processed by: cddbd v1.5.1PL2 Copyright (c) Steve Scherf et al.
# Submitted via: GXTranscoder 2.0.1939
#
DISCID=2d063f05
DTITLE=MOuse T - Moute
DYEAR=2003
DGENRE=Children's Music
TTITLE0=1
TTITLE1=2
TTITLE2=3
TTITLE3=4
TTITLE4=5
EXTD=
EXTT0=
EXTT1=
EXTT2=
EXTT3=
EXTT4=
PLAYORDER=
